<svg xmlns="http://www.w3.org/2000/svg" viewBox="0 0 2350 2906" width="2350" height="2906" font-family="Segoe UI,Arial"><rect x="0" y="0" width="2350" height="2906" fill="#FFFFFF"/><text x="54" y="50" font-size="24" fill="#1F3A5F" font-weight="bold">Event Storming — Oficina Mecanica (board por fases)</text><text x="54" y="74" font-size="12" fill="#5A7184">Linha central = fluxo principal · verde acima = modelo de leitura · laranja abaixo = caminho alternativo · cinza tracejado = paralelo/opcional</text><rect x="54" y="92" width="16" height="14" rx="3" fill="#F6A93B" stroke="#00000026"/><text x="76" y="103" font-size="11" fill="#243B53">Evento</text><rect x="146" y="92" width="16" height="14" rx="3" fill="#4C8DD6" stroke="#00000026"/><text x="168" y="103" font-size="11" fill="#243B53">Comando</text><rect x="245" y="92" width="16" height="14" rx="3" fill="#A977D6" stroke="#00000026"/><text x="267" y="103" font-size="11" fill="#243B53">Politica</text><rect x="351" y="92" width="16" height="14" rx="3" fill="#86C04A" stroke="#00000026"/><text x="373" y="103" font-size="11" fill="#243B53">Modelo de leitura</text><rect x="520" y="92" width="16" height="14" rx="3" fill="#EC6FA6" stroke="#00000026"/><text x="542" y="103" font-size="11" fill="#243B53">Sistema externo</text><rect x="675" y="92" width="16" height="14" rx="3" fill="#F2D750"/><text x="697" y="103" font-size="11" fill="#243B53">Ator</text><rect x="755" y="92" width="13" height="13" rx="2" transform="rotate(45 761.5 98.5)" fill="#E2574C"/><text x="777" y="103" font-size="11" fill="#243B53">Ponto de atencao</text><rect x="44" y="150" width="1316" height="28" rx="5" fill="#1F3A5F"/><text x="54" y="169" font-size="14" fill="#fff" font-weight="bold">FASE 1 — Identificacao</text><text x="1330" y="169" font-size="10.5" fill="#cfe0f0" text-anchor="end">BC: Cadastros  ·  Agregados: Cliente, Veiculo</text><rect x="60" y="322" width="150" height="60" rx="7" fill="#4C8DD6" stroke="#00000026"/><rect x="68" y="309" width="68" height="17" rx="3" fill="#F2D750" stroke="#00000026"/><text x="102" y="321" font-size="10" fill="#4A3B00" text-anchor="middle">Atendente</text><text x="135" y="348" font-size="10.5" fill="#08233F" text-anchor="middle">Solicitar</text><text x="135" y="361" font-size="10.5" fill="#08233F" text-anchor="middle">atendimento</text><rect x="250" y="322" width="150" height="60" rx="7" fill="#F6A93B" stroke="#00000026"/><text x="325" y="348" font-size="10.5" fill="#5A3A00" text-anchor="middle">Atendimento</text><text x="325" y="361" font-size="10.5" fill="#5A3A00" text-anchor="middle">solicitado</text><line x1="210" y1="352.0" x2="242" y2="352.0" stroke="#5A7184" stroke-width="2"/><path d="M242,347.0 L250,352.0 L242,357.0 Z" fill="#5A7184"/><rect x="440" y="322" width="150" height="60" rx="7" fill="#4C8DD6" stroke="#00000026"/><rect x="448" y="309" width="68" height="17" rx="3" fill="#F2D750" stroke="#00000026"/><text x="482" y="321" font-size="10" fill="#4A3B00" text-anchor="middle">Atendente</text><text x="515" y="341" font-size="10.5" fill="#08233F" text-anchor="middle">Identificar</text><text x="515" y="354" font-size="10.5" fill="#08233F" text-anchor="middle">cliente por</text><text x="515" y="367" font-size="10.5" fill="#08233F" text-anchor="middle">CPF/CNPJ</text><line x1="400" y1="352.0" x2="432" y2="352.0" stroke="#5A7184" stroke-width="2"/><path d="M432,347.0 L440,352.0 L432,357.0 Z" fill="#5A7184"/><rect x="630" y="322" width="150" height="60" rx="7" fill="#F6A93B" stroke="#00000026"/><text x="705" y="348" font-size="10.5" fill="#5A3A00" text-anchor="middle">Cliente</text><text x="705" y="361" font-size="10.5" fill="#5A3A00" text-anchor="middle">identificado</text><line x1="590" y1="352.0" x2="622" y2="352.0" stroke="#5A7184" stroke-width="2"/><path d="M622,347.0 L630,352.0 L622,357.0 Z" fill="#5A7184"/><rect x="820" y="322" width="150" height="60" rx="7" fill="#4C8DD6" stroke="#00000026"/><rect x="828" y="309" width="68" height="17" rx="3" fill="#F2D750" stroke="#00000026"/><text x="862" y="321" font-size="10" fill="#4A3B00" text-anchor="middle">Atendente</text><text x="895" y="348" font-size="10.5" fill="#08233F" text-anchor="middle">Identificar</text><text x="895" y="361" font-size="10.5" fill="#08233F" text-anchor="middle">veiculo pela placa</text><line x1="780" y1="352.0" x2="812" y2="352.0" stroke="#5A7184" stroke-width="2"/><path d="M812,347.0 L820,352.0 L812,357.0 Z" fill="#5A7184"/><rect x="1010" y="322" width="150" height="60" rx="7" fill="#F6A93B" stroke="#00000026"/><text x="1085" y="348" font-size="10.5" fill="#5A3A00" text-anchor="middle">Veiculo</text><text x="1085" y="361" font-size="10.5" fill="#5A3A00" text-anchor="middle">identificado</text><line x1="970" y1="352.0" x2="1002" y2="352.0" stroke="#5A7184" stroke-width="2"/><path d="M1002,347.0 L1010,352.0 L1002,357.0 Z" fill="#5A7184"/><rect x="440" y="204" width="150" height="60" rx="7" fill="#86C04A" stroke="#00000026"/><text x="515" y="237" font-size="10.5" fill="#1E3A07" text-anchor="middle">Lista de clientes</text><line x1="515.0" y1="264" x2="515.0" y2="314" stroke="#5C9A2E" stroke-width="2" stroke-dasharray="4 3"/><path d="M510.0,314 L515.0,322 L520.0,314 Z" fill="#5C9A2E"/><rect x="820" y="204" width="150" height="60" rx="7" fill="#86C04A" stroke="#00000026"/><text x="895" y="230" font-size="10.5" fill="#1E3A07" text-anchor="middle">Lista de veiculos</text><text x="895" y="243" font-size="10.5" fill="#1E3A07" text-anchor="middle">do cliente</text><line x1="895.0" y1="264" x2="895.0" y2="314" stroke="#5C9A2E" stroke-width="2" stroke-dasharray="4 3"/><path d="M890.0,314 L895.0,322 L900.0,314 Z" fill="#5C9A2E"/><path d="M515.0,382 L515.0,417.0 L515.0,417.0 L515.0,444" fill="none" stroke="#D9822B" stroke-width="2" stroke-dasharray="5 4"/><path d="M510.0,444 L515.0,452 L520.0,444 Z" fill="#D9822B"/><rect x="440" y="452" width="150" height="60" rx="7" fill="#F6A93B" stroke="#00000026"/><text x="515" y="478" font-size="10.5" fill="#5A3A00" text-anchor="middle">Cliente nao</text><text x="515" y="491" font-size="10.5" fill="#5A3A00" text-anchor="middle">encontrado</text><rect x="630" y="452" width="150" height="60" rx="7" fill="#4C8DD6" stroke="#00000026"/><rect x="638" y="439" width="68" height="17" rx="3" fill="#F2D750" stroke="#00000026"/><text x="672" y="451" font-size="10" fill="#4A3B00" text-anchor="middle">Atendente</text><text x="705" y="485" font-size="10.5" fill="#08233F" text-anchor="middle">Cadastrar cliente</text><line x1="590" y1="482.0" x2="622" y2="482.0" stroke="#D9822B" stroke-width="2"/><path d="M622,477.0 L630,482.0 L622,487.0 Z" fill="#D9822B"/><rect x="820" y="452" width="150" height="60" rx="7" fill="#F6A93B" stroke="#00000026"/><text x="895" y="485" font-size="10.5" fill="#5A3A00" text-anchor="middle">Cliente cadastrado</text><line x1="780" y1="482.0" x2="812" y2="482.0" stroke="#D9822B" stroke-width="2"/><path d="M812,477.0 L820,482.0 L812,487.0 Z" fill="#D9822B"/><path d="M895.0,452 L895.0,417.0 L895.0,417.0 L895.0,390" fill="none" stroke="#D9822B" stroke-width="2" stroke-dasharray="5 4"/><path d="M890.0,390 L895.0,382 L900.0,390 Z" fill="#D9822B"/><text x="440" y="444" font-size="10" fill="#D9822B" font-style="italic">se cliente nao encontrado</text><path d="M895.0,382 L895.0,479.0 L1085.0,479.0 L1085.0,568" fill="none" stroke="#D9822B" stroke-width="2" stroke-dasharray="5 4"/><path d="M1080.0,568 L1085.0,576 L1090.0,568 Z" fill="#D9822B"/><rect x="1010" y="576" width="150" height="60" rx="7" fill="#F6A93B" stroke="#00000026"/><text x="1085" y="602" font-size="10.5" fill="#5A3A00" text-anchor="middle">Veiculo nao</text><text x="1085" y="615" font-size="10.5" fill="#5A3A00" text-anchor="middle">encontrado</text><rect x="1200" y="576" width="150" height="60" rx="7" fill="#4C8DD6" stroke="#00000026"/><rect x="1208" y="563" width="68" height="17" rx="3" fill="#F2D750" stroke="#00000026"/><text x="1242" y="575" font-size="10" fill="#4A3B00" text-anchor="middle">Atendente</text><text x="1275" y="609" font-size="10.5" fill="#08233F" text-anchor="middle">Cadastrar veiculo</text><line x1="1160" y1="606.0" x2="1192" y2="606.0" stroke="#D9822B" stroke-width="2"/><path d="M1192,601.0 L1200,606.0 L1192,611.0 Z" fill="#D9822B"/><rect x="1390" y="576" width="150" height="60" rx="7" fill="#F6A93B" stroke="#00000026"/><text x="1465" y="609" font-size="10.5" fill="#5A3A00" text-anchor="middle">Veiculo cadastrado</text><line x1="1350" y1="606.0" x2="1382" y2="606.0" stroke="#D9822B" stroke-width="2"/><path d="M1382,601.0 L1390,606.0 L1382,611.0 Z" fill="#D9822B"/><path d="M1465.0,576 L1465.0,479.0 L1085.0,479.0 L1085.0,390" fill="none" stroke="#D9822B" stroke-width="2" stroke-dasharray="5 4"/><path d="M1080.0,390 L1085.0,382 L1090.0,390 Z" fill="#D9822B"/><text x="1010" y="568" font-size="10" fill="#D9822B" font-style="italic">se veiculo nao encontrado</text><line x1="1210" y1="144" x2="1210" y2="660" stroke="#243B53" stroke-width="3"/><circle cx="1210" cy="352.0" r="7" fill="#243B53"/><text x="1224" y="346.0" font-size="11.5" fill="#243B53" font-weight="bold">PIVOTAL</text><text x="1224" y="362.0" font-size="11" fill="#243B53">Cliente e veiculo identificados</text><rect x="44" y="720" width="2266" height="28" rx="5" fill="#1F3A5F"/><text x="54" y="739" font-size="14" fill="#fff" font-weight="bold">FASE 2 — Criacao da OS e Diagnostico</text><text x="2280" y="739" font-size="10.5" fill="#cfe0f0" text-anchor="end">BC: Ordem de Servico  ·  Agregados: OrdemServico</text><rect x="60" y="892" width="150" height="60" rx="7" fill="#4C8DD6" stroke="#00000026"/><rect x="68" y="879" width="68" height="17" rx="3" fill="#F2D750" stroke="#00000026"/><text x="102" y="891" font-size="10" fill="#4A3B00" text-anchor="middle">Atendente</text><text x="135" y="925" font-size="10.5" fill="#08233F" text-anchor="middle">Criar OS</text><rect x="250" y="892" width="150" height="60" rx="7" fill="#F6A93B" stroke="#00000026"/><text x="325" y="918" font-size="10.5" fill="#5A3A00" text-anchor="middle">Ordem de servico</text><text x="325" y="931" font-size="10.5" fill="#5A3A00" text-anchor="middle">criada</text><line x1="210" y1="922.0" x2="242" y2="922.0" stroke="#5A7184" stroke-width="2"/><path d="M242,917.0 L250,922.0 L242,927.0 Z" fill="#5A7184"/><rect x="440" y="892" width="150" height="60" rx="7" fill="#A977D6" stroke="#00000026"/><text x="515" y="925" font-size="10.5" fill="#2E1049" text-anchor="middle">Status = Recebida</text><line x1="400" y1="922.0" x2="432" y2="922.0" stroke="#5A7184" stroke-width="2"/><path d="M432,917.0 L440,922.0 L432,927.0 Z" fill="#5A7184"/><rect x="630" y="892" width="150" height="60" rx="7" fill="#F6A93B" stroke="#00000026"/><text x="705" y="925" font-size="10.5" fill="#5A3A00" text-anchor="middle">OS recebida</text><line x1="590" y1="922.0" x2="622" y2="922.0" stroke="#5A7184" stroke-width="2"/><path d="M622,917.0 L630,922.0 L622,927.0 Z" fill="#5A7184"/><rect x="820" y="892" width="150" height="60" rx="7" fill="#4C8DD6" stroke="#00000026"/><rect x="828" y="879" width="61" height="17" rx="3" fill="#F2D750" stroke="#00000026"/><text x="859" y="891" font-size="10" fill="#4A3B00" text-anchor="middle">Mecanico</text><text x="895" y="918" font-size="10.5" fill="#08233F" text-anchor="middle">Iniciar</text><text x="895" y="931" font-size="10.5" fill="#08233F" text-anchor="middle">diagnostico</text><line x1="780" y1="922.0" x2="812" y2="922.0" stroke="#5A7184" stroke-width="2"/><path d="M812,917.0 L820,922.0 L812,927.0 Z" fill="#5A7184"/><rect x="1010" y="892" width="150" height="60" rx="7" fill="#F6A93B" stroke="#00000026"/><text x="1085" y="918" font-size="10.5" fill="#5A3A00" text-anchor="middle">Diagnostico</text><text x="1085" y="931" font-size="10.5" fill="#5A3A00" text-anchor="middle">iniciado</text><line x1="970" y1="922.0" x2="1002" y2="922.0" stroke="#5A7184" stroke-width="2"/><path d="M1002,917.0 L1010,922.0 L1002,927.0 Z" fill="#5A7184"/><rect x="1200" y="892" width="150" height="60" rx="7" fill="#A977D6" stroke="#00000026"/><text x="1275" y="918" font-size="10.5" fill="#2E1049" text-anchor="middle">Status = Em</text><text x="1275" y="931" font-size="10.5" fill="#2E1049" text-anchor="middle">diagnostico</text><line x1="1160" y1="922.0" x2="1192" y2="922.0" stroke="#5A7184" stroke-width="2"/><path d="M1192,917.0 L1200,922.0 L1192,927.0 Z" fill="#5A7184"/><rect x="1390" y="892" width="150" height="60" rx="7" fill="#4C8DD6" stroke="#00000026"/><rect x="1398" y="879" width="61" height="17" rx="3" fill="#F2D750" stroke="#00000026"/><text x="1429" y="891" font-size="10" fill="#4A3B00" text-anchor="middle">Mecanico</text><text x="1465" y="918" font-size="10.5" fill="#08233F" text-anchor="middle">Registrar servico</text><text x="1465" y="931" font-size="10.5" fill="#08233F" text-anchor="middle">necessario</text><line x1="1350" y1="922.0" x2="1382" y2="922.0" stroke="#5A7184" stroke-width="2"/><path d="M1382,917.0 L1390,922.0 L1382,927.0 Z" fill="#5A7184"/><rect x="1580" y="892" width="150" height="60" rx="7" fill="#4C8DD6" stroke="#00000026"/><rect x="1588" y="879" width="61" height="17" rx="3" fill="#F2D750" stroke="#00000026"/><text x="1619" y="891" font-size="10" fill="#4A3B00" text-anchor="middle">Mecanico</text><text x="1655" y="918" font-size="10.5" fill="#08233F" text-anchor="middle">Registrar</text><text x="1655" y="931" font-size="10.5" fill="#08233F" text-anchor="middle">peca/insumo</text><line x1="1540" y1="922.0" x2="1572" y2="922.0" stroke="#5A7184" stroke-width="2"/><path d="M1572,917.0 L1580,922.0 L1572,927.0 Z" fill="#5A7184"/><rect x="1770" y="892" width="150" height="60" rx="7" fill="#4C8DD6" stroke="#00000026"/><rect x="1778" y="879" width="61" height="17" rx="3" fill="#F2D750" stroke="#00000026"/><text x="1809" y="891" font-size="10" fill="#4A3B00" text-anchor="middle">Mecanico</text><text x="1845" y="918" font-size="10.5" fill="#08233F" text-anchor="middle">Finalizar</text><text x="1845" y="931" font-size="10.5" fill="#08233F" text-anchor="middle">diagnostico</text><line x1="1730" y1="922.0" x2="1762" y2="922.0" stroke="#5A7184" stroke-width="2"/><path d="M1762,917.0 L1770,922.0 L1762,927.0 Z" fill="#5A7184"/><rect x="1960" y="892" width="150" height="60" rx="7" fill="#F6A93B" stroke="#00000026"/><text x="2035" y="918" font-size="10.5" fill="#5A3A00" text-anchor="middle">Diagnostico</text><text x="2035" y="931" font-size="10.5" fill="#5A3A00" text-anchor="middle">finalizado</text><line x1="1920" y1="922.0" x2="1952" y2="922.0" stroke="#5A7184" stroke-width="2"/><path d="M1952,917.0 L1960,922.0 L1952,927.0 Z" fill="#5A7184"/><rect x="820" y="774" width="150" height="60" rx="7" fill="#86C04A" stroke="#00000026"/><text x="895" y="800" font-size="10.5" fill="#1E3A07" text-anchor="middle">Lista de OSs</text><text x="895" y="813" font-size="10.5" fill="#1E3A07" text-anchor="middle">abertas</text><line x1="895.0" y1="834" x2="895.0" y2="884" stroke="#5C9A2E" stroke-width="2" stroke-dasharray="4 3"/><path d="M890.0,884 L895.0,892 L900.0,884 Z" fill="#5C9A2E"/><rect x="1390" y="774" width="150" height="60" rx="7" fill="#86C04A" stroke="#00000026"/><text x="1465" y="800" font-size="10.5" fill="#1E3A07" text-anchor="middle">Catalogo de</text><text x="1465" y="813" font-size="10.5" fill="#1E3A07" text-anchor="middle">servicos</text><line x1="1465.0" y1="834" x2="1465.0" y2="884" stroke="#5C9A2E" stroke-width="2" stroke-dasharray="4 3"/><path d="M1460.0,884 L1465.0,892 L1470.0,884 Z" fill="#5C9A2E"/><rect x="1580" y="774" width="150" height="60" rx="7" fill="#86C04A" stroke="#00000026"/><text x="1655" y="800" font-size="10.5" fill="#1E3A07" text-anchor="middle">Estoque (pecas e</text><text x="1655" y="813" font-size="10.5" fill="#1E3A07" text-anchor="middle">insumos)</text><line x1="1655.0" y1="834" x2="1655.0" y2="884" stroke="#5C9A2E" stroke-width="2" stroke-dasharray="4 3"/><path d="M1650.0,884 L1655.0,892 L1660.0,884 Z" fill="#5C9A2E"/><path d="M1275.0,952 L1275.0,987.0 L1085.0,987.0 L1085.0,1014" fill="none" stroke="#8A9BA8" stroke-width="2" stroke-dasharray="2 4"/><path d="M1080.0,1014 L1085.0,1022 L1090.0,1014 Z" fill="#8A9BA8"/><rect x="1010" y="1022" width="150" height="60" rx="7" fill="#86C04A" stroke="#00000026"/><text x="1085" y="1055" font-size="10.5" fill="#1E3A07" text-anchor="middle">Andamento da OS</text><rect x="1200" y="1022" width="150" height="60" rx="7" fill="#4C8DD6" stroke="#00000026"/><rect x="1208" y="1009" width="93" height="17" rx="3" fill="#F2D750" stroke="#00000026"/><text x="1255" y="1021" font-size="10" fill="#4A3B00" text-anchor="middle">Cliente (API)</text><text x="1275" y="1048" font-size="10.5" fill="#08233F" text-anchor="middle">Consultar</text><text x="1275" y="1061" font-size="10.5" fill="#08233F" text-anchor="middle">andamento</text><line x1="1160" y1="1052.0" x2="1192" y2="1052.0" stroke="#8A9BA8" stroke-width="2" stroke-dasharray="2 4"/><path d="M1192,1047.0 L1200,1052.0 L1192,1057.0 Z" fill="#8A9BA8"/><rect x="1390" y="1022" width="150" height="60" rx="7" fill="#F6A93B" stroke="#00000026"/><text x="1465" y="1048" font-size="10.5" fill="#5A3A00" text-anchor="middle">Andamento</text><text x="1465" y="1061" font-size="10.5" fill="#5A3A00" text-anchor="middle">consultado</text><line x1="1350" y1="1052.0" x2="1382" y2="1052.0" stroke="#8A9BA8" stroke-width="2" stroke-dasharray="2 4"/><path d="M1382,1047.0 L1390,1052.0 L1382,1057.0 Z" fill="#8A9BA8"/><text x="1010" y="1014" font-size="10" fill="#5A7184" font-style="italic">Paralelo - consulta do cliente (nao altera estado)</text><path d="M2035.0,952 L2035.0,1049.0 L1655.0,1049.0 L1655.0,1138" fill="none" stroke="#8A9BA8" stroke-width="2" stroke-dasharray="2 4"/><path d="M1650.0,1138 L1655.0,1146 L1660.0,1138 Z" fill="#8A9BA8"/><rect x="1580" y="1146" width="150" height="60" rx="7" fill="#A977D6" stroke="#00000026"/><text x="1655" y="1172" font-size="10.5" fill="#2E1049" text-anchor="middle">Quando status</text><text x="1655" y="1185" font-size="10.5" fill="#2E1049" text-anchor="middle">mudar, notificar</text><rect x="1770" y="1146" width="150" height="60" rx="7" fill="#EC6FA6" stroke="#00000026"/><text x="1845" y="1172" font-size="10.5" fill="#4A0A28" text-anchor="middle">Sistema de</text><text x="1845" y="1185" font-size="10.5" fill="#4A0A28" text-anchor="middle">Notificacao</text><line x1="1730" y1="1176.0" x2="1762" y2="1176.0" stroke="#8A9BA8" stroke-width="2" stroke-dasharray="2 4"/><path d="M1762,1171.0 L1770,1176.0 L1762,1181.0 Z" fill="#8A9BA8"/><rect x="1960" y="1146" width="150" height="60" rx="7" fill="#F6A93B" stroke="#00000026"/><text x="2035" y="1179" font-size="10.5" fill="#5A3A00" text-anchor="middle">Cliente notificado</text><line x1="1920" y1="1176.0" x2="1952" y2="1176.0" stroke="#8A9BA8" stroke-width="2" stroke-dasharray="2 4"/><path d="M1952,1171.0 L1960,1176.0 L1952,1181.0 Z" fill="#8A9BA8"/><text x="1580" y="1138" font-size="10" fill="#5A7184" font-style="italic">Opcional - notificacao ativa</text><rect x="2128" y="1164" width="22" height="22" rx="3" transform="rotate(45 2139 1175)" fill="#E2574C"/><text x="2139" y="1179" font-size="11" fill="#fff" text-anchor="middle" font-weight="bold">3</text><line x1="2160" y1="714" x2="2160" y2="1230" stroke="#243B53" stroke-width="3"/><circle cx="2160" cy="922.0" r="7" fill="#243B53"/><text x="2174" y="916.0" font-size="11.5" fill="#243B53" font-weight="bold">PIVOTAL</text><text x="2174" y="932.0" font-size="11" fill="#243B53">Diagnostico finalizado</text><rect x="44" y="1290" width="1316" height="28" rx="5" fill="#1F3A5F"/><text x="54" y="1309" font-size="14" fill="#fff" font-weight="bold">FASE 3 — Orcamento e Aprovacao</text><text x="1330" y="1309" font-size="10.5" fill="#cfe0f0" text-anchor="end">BC: Orcamento (ligado a OS)  ·  Agregados: Orcamento</text><rect x="60" y="1462" width="150" height="60" rx="7" fill="#A977D6" stroke="#00000026"/><text x="135" y="1488" font-size="10.5" fill="#2E1049" text-anchor="middle">Gerar orcamento +</text><text x="135" y="1501" font-size="10.5" fill="#2E1049" text-anchor="middle">previsao (auto)</text><rect x="250" y="1462" width="150" height="60" rx="7" fill="#F6A93B" stroke="#00000026"/><text x="325" y="1495" font-size="10.5" fill="#5A3A00" text-anchor="middle">Orcamento gerado</text><line x1="210" y1="1492.0" x2="242" y2="1492.0" stroke="#5A7184" stroke-width="2"/><path d="M242,1487.0 L250,1492.0 L242,1497.0 Z" fill="#5A7184"/><rect x="440" y="1462" width="150" height="60" rx="7" fill="#A977D6" stroke="#00000026"/><text x="515" y="1481" font-size="10.5" fill="#2E1049" text-anchor="middle">Status =</text><text x="515" y="1494" font-size="10.5" fill="#2E1049" text-anchor="middle">Aguardando</text><text x="515" y="1507" font-size="10.5" fill="#2E1049" text-anchor="middle">aprovacao</text><line x1="400" y1="1492.0" x2="432" y2="1492.0" stroke="#5A7184" stroke-width="2"/><path d="M432,1487.0 L440,1492.0 L432,1497.0 Z" fill="#5A7184"/><rect x="630" y="1462" width="150" height="60" rx="7" fill="#F6A93B" stroke="#00000026"/><text x="705" y="1488" font-size="10.5" fill="#5A3A00" text-anchor="middle">OS aguardando</text><text x="705" y="1501" font-size="10.5" fill="#5A3A00" text-anchor="middle">aprovacao</text><line x1="590" y1="1492.0" x2="622" y2="1492.0" stroke="#5A7184" stroke-width="2"/><path d="M622,1487.0 L630,1492.0 L622,1497.0 Z" fill="#5A7184"/><rect x="820" y="1462" width="150" height="60" rx="7" fill="#4C8DD6" stroke="#00000026"/><rect x="828" y="1449" width="93" height="17" rx="3" fill="#F2D750" stroke="#00000026"/><text x="875" y="1461" font-size="10" fill="#4A3B00" text-anchor="middle">Cliente (API)</text><text x="895" y="1488" font-size="10.5" fill="#08233F" text-anchor="middle">Responder</text><text x="895" y="1501" font-size="10.5" fill="#08233F" text-anchor="middle">orcamento</text><line x1="780" y1="1492.0" x2="812" y2="1492.0" stroke="#5A7184" stroke-width="2"/><path d="M812,1487.0 L820,1492.0 L812,1497.0 Z" fill="#5A7184"/><rect x="1010" y="1462" width="150" height="60" rx="7" fill="#F6A93B" stroke="#00000026"/><text x="1085" y="1495" font-size="10.5" fill="#5A3A00" text-anchor="middle">Orcamento aprovado</text><line x1="970" y1="1492.0" x2="1002" y2="1492.0" stroke="#5A7184" stroke-width="2"/><path d="M1002,1487.0 L1010,1492.0 L1002,1497.0 Z" fill="#5A7184"/><rect x="820" y="1344" width="150" height="60" rx="7" fill="#86C04A" stroke="#00000026"/><text x="895" y="1370" font-size="10.5" fill="#1E3A07" text-anchor="middle">Orcamento (itens,</text><text x="895" y="1383" font-size="10.5" fill="#1E3A07" text-anchor="middle">valores)</text><line x1="895.0" y1="1404" x2="895.0" y2="1454" stroke="#5C9A2E" stroke-width="2" stroke-dasharray="4 3"/><path d="M890.0,1454 L895.0,1462 L900.0,1454 Z" fill="#5C9A2E"/><path d="M895.0,1522 L895.0,1557.0 L325.0,1557.0 L325.0,1584" fill="none" stroke="#D9822B" stroke-width="2" stroke-dasharray="5 4"/><path d="M320.0,1584 L325.0,1592 L330.0,1584 Z" fill="#D9822B"/><rect x="250" y="1592" width="150" height="60" rx="7" fill="#F6A93B" stroke="#00000026"/><text x="325" y="1625" font-size="10.5" fill="#5A3A00" text-anchor="middle">Item reprovado</text><rect x="440" y="1592" width="150" height="60" rx="7" fill="#4C8DD6" stroke="#00000026"/><rect x="448" y="1579" width="68" height="17" rx="3" fill="#F2D750" stroke="#00000026"/><text x="482" y="1591" font-size="10" fill="#4A3B00" text-anchor="middle">Atendente</text><text x="515" y="1625" font-size="10.5" fill="#08233F" text-anchor="middle">Remover item da OS</text><line x1="400" y1="1622.0" x2="432" y2="1622.0" stroke="#D9822B" stroke-width="2"/><path d="M432,1617.0 L440,1622.0 L432,1627.0 Z" fill="#D9822B"/><rect x="630" y="1592" width="150" height="60" rx="7" fill="#F6A93B" stroke="#00000026"/><text x="705" y="1625" font-size="10.5" fill="#5A3A00" text-anchor="middle">Item removido</text><line x1="590" y1="1622.0" x2="622" y2="1622.0" stroke="#D9822B" stroke-width="2"/><path d="M622,1617.0 L630,1622.0 L622,1627.0 Z" fill="#D9822B"/><rect x="820" y="1592" width="150" height="60" rx="7" fill="#A977D6" stroke="#00000026"/><text x="895" y="1618" font-size="10.5" fill="#2E1049" text-anchor="middle">Recalcular</text><text x="895" y="1631" font-size="10.5" fill="#2E1049" text-anchor="middle">orcamento</text><line x1="780" y1="1622.0" x2="812" y2="1622.0" stroke="#D9822B" stroke-width="2"/><path d="M812,1617.0 L820,1622.0 L812,1627.0 Z" fill="#D9822B"/><path d="M895.0,1592 L895.0,1557.0 L515.0,1557.0 L515.0,1530" fill="none" stroke="#D9822B" stroke-width="2" stroke-dasharray="5 4"/><path d="M510.0,1530 L515.0,1522 L520.0,1530 Z" fill="#D9822B"/><text x="250" y="1584" font-size="10" fill="#D9822B" font-style="italic">reprova item -&gt; recalcula</text><path d="M895.0,1522 L895.0,1619.0 L1085.0,1619.0 L1085.0,1708" fill="none" stroke="#C0504D" stroke-width="2" stroke-dasharray="5 4"/><path d="M1080.0,1708 L1085.0,1716 L1090.0,1708 Z" fill="#C0504D"/><rect x="1010" y="1716" width="150" height="60" rx="7" fill="#F6A93B" stroke="#00000026"/><text x="1085" y="1742" font-size="10.5" fill="#5A3A00" text-anchor="middle">Solicitacao</text><text x="1085" y="1755" font-size="10.5" fill="#5A3A00" text-anchor="middle">cancelada</text><rect x="1200" y="1716" width="150" height="60" rx="7" fill="#A977D6" stroke="#00000026"/><text x="1275" y="1749" font-size="10.5" fill="#2E1049" text-anchor="middle">Status = Cancelada</text><line x1="1160" y1="1746.0" x2="1192" y2="1746.0" stroke="#C0504D" stroke-width="2"/><path d="M1192,1741.0 L1200,1746.0 L1192,1751.0 Z" fill="#C0504D"/><rect x="1390" y="1716" width="150" height="60" rx="7" fill="#F6A93B" stroke="#00000026"/><text x="1465" y="1749" font-size="10.5" fill="#5A3A00" text-anchor="middle">OS cancelada</text><line x1="1350" y1="1746.0" x2="1382" y2="1746.0" stroke="#C0504D" stroke-width="2"/><path d="M1382,1741.0 L1390,1746.0 L1382,1751.0 Z" fill="#C0504D"/><text x="1010" y="1708" font-size="10" fill="#C0504D" font-style="italic">cancela solicitacao</text><line x1="1210" y1="1284" x2="1210" y2="1800" stroke="#243B53" stroke-width="3"/><circle cx="1210" cy="1492.0" r="7" fill="#243B53"/><text x="1224" y="1486.0" font-size="11.5" fill="#243B53" font-weight="bold">PIVOTAL</text><text x="1224" y="1502.0" font-size="11" fill="#243B53">OS aprovada pelo cliente</text><rect x="44" y="1860" width="2076" height="28" rx="5" fill="#1F3A5F"/><text x="54" y="1879" font-size="14" fill="#fff" font-weight="bold">FASE 4 — Execucao</text><text x="2090" y="1879" font-size="10.5" fill="#cfe0f0" text-anchor="end">BC: OS + Estoque  ·  Agregados: OrdemServico, Peca/Insumo</text><rect x="60" y="2032" width="150" height="60" rx="7" fill="#4C8DD6" stroke="#00000026"/><rect x="68" y="2019" width="61" height="17" rx="3" fill="#F2D750" stroke="#00000026"/><text x="99" y="2031" font-size="10" fill="#4A3B00" text-anchor="middle">Mecanico</text><text x="135" y="2058" font-size="10.5" fill="#08233F" text-anchor="middle">Iniciar execucao</text><text x="135" y="2071" font-size="10.5" fill="#08233F" text-anchor="middle">da OS</text><rect x="250" y="2032" width="150" height="60" rx="7" fill="#F6A93B" stroke="#00000026"/><text x="325" y="2065" font-size="10.5" fill="#5A3A00" text-anchor="middle">Execucao iniciada</text><line x1="210" y1="2062.0" x2="242" y2="2062.0" stroke="#5A7184" stroke-width="2"/><path d="M242,2057.0 L250,2062.0 L242,2067.0 Z" fill="#5A7184"/><rect x="440" y="2032" width="150" height="60" rx="7" fill="#A977D6" stroke="#00000026"/><text x="515" y="2058" font-size="10.5" fill="#2E1049" text-anchor="middle">Status = Em</text><text x="515" y="2071" font-size="10.5" fill="#2E1049" text-anchor="middle">execucao</text><line x1="400" y1="2062.0" x2="432" y2="2062.0" stroke="#5A7184" stroke-width="2"/><path d="M432,2057.0 L440,2062.0 L432,2067.0 Z" fill="#5A7184"/><rect x="630" y="2032" width="150" height="60" rx="7" fill="#F6A93B" stroke="#00000026"/><text x="705" y="2065" font-size="10.5" fill="#5A3A00" text-anchor="middle">OS em execucao</text><line x1="590" y1="2062.0" x2="622" y2="2062.0" stroke="#5A7184" stroke-width="2"/><path d="M622,2057.0 L630,2062.0 L622,2067.0 Z" fill="#5A7184"/><rect x="820" y="2032" width="150" height="60" rx="7" fill="#4C8DD6" stroke="#00000026"/><rect x="828" y="2019" width="61" height="17" rx="3" fill="#F2D750" stroke="#00000026"/><text x="859" y="2031" font-size="10" fill="#4A3B00" text-anchor="middle">Mecanico</text><text x="895" y="2065" font-size="10.5" fill="#08233F" text-anchor="middle">Executar servico</text><line x1="780" y1="2062.0" x2="812" y2="2062.0" stroke="#5A7184" stroke-width="2"/><path d="M812,2057.0 L820,2062.0 L812,2067.0 Z" fill="#5A7184"/><rect x="1010" y="2032" width="150" height="60" rx="7" fill="#F6A93B" stroke="#00000026"/><text x="1085" y="2065" font-size="10.5" fill="#5A3A00" text-anchor="middle">Servico executado</text><line x1="970" y1="2062.0" x2="1002" y2="2062.0" stroke="#5A7184" stroke-width="2"/><path d="M1002,2057.0 L1010,2062.0 L1002,2067.0 Z" fill="#5A7184"/><rect x="1200" y="2032" width="150" height="60" rx="7" fill="#4C8DD6" stroke="#00000026"/><rect x="1208" y="2019" width="61" height="17" rx="3" fill="#F2D750" stroke="#00000026"/><text x="1239" y="2031" font-size="10" fill="#4A3B00" text-anchor="middle">Mecanico</text><text x="1275" y="2058" font-size="10.5" fill="#08233F" text-anchor="middle">Registrar uso de</text><text x="1275" y="2071" font-size="10.5" fill="#08233F" text-anchor="middle">peca</text><line x1="1160" y1="2062.0" x2="1192" y2="2062.0" stroke="#5A7184" stroke-width="2"/><path d="M1192,2057.0 L1200,2062.0 L1192,2067.0 Z" fill="#5A7184"/><rect x="1390" y="2032" width="150" height="60" rx="7" fill="#F6A93B" stroke="#00000026"/><text x="1465" y="2058" font-size="10.5" fill="#5A3A00" text-anchor="middle">Peca/insumo</text><text x="1465" y="2071" font-size="10.5" fill="#5A3A00" text-anchor="middle">utilizado</text><line x1="1350" y1="2062.0" x2="1382" y2="2062.0" stroke="#5A7184" stroke-width="2"/><path d="M1382,2057.0 L1390,2062.0 L1382,2067.0 Z" fill="#5A7184"/><rect x="1580" y="2032" width="150" height="60" rx="7" fill="#4C8DD6" stroke="#00000026"/><rect x="1588" y="2019" width="61" height="17" rx="3" fill="#F2D750" stroke="#00000026"/><text x="1619" y="2031" font-size="10" fill="#4A3B00" text-anchor="middle">Mecanico</text><text x="1655" y="2065" font-size="10.5" fill="#08233F" text-anchor="middle">Finalizar execucao</text><line x1="1540" y1="2062.0" x2="1572" y2="2062.0" stroke="#5A7184" stroke-width="2"/><path d="M1572,2057.0 L1580,2062.0 L1572,2067.0 Z" fill="#5A7184"/><rect x="1770" y="2032" width="150" height="60" rx="7" fill="#F6A93B" stroke="#00000026"/><text x="1845" y="2065" font-size="10.5" fill="#5A3A00" text-anchor="middle">OS finalizada</text><line x1="1730" y1="2062.0" x2="1762" y2="2062.0" stroke="#5A7184" stroke-width="2"/><path d="M1762,2057.0 L1770,2062.0 L1762,2067.0 Z" fill="#5A7184"/><rect x="820" y="1914" width="150" height="60" rx="7" fill="#86C04A" stroke="#00000026"/><text x="895" y="1940" font-size="10.5" fill="#1E3A07" text-anchor="middle">Lista de servicos</text><text x="895" y="1953" font-size="10.5" fill="#1E3A07" text-anchor="middle">da OS</text><line x1="895.0" y1="1974" x2="895.0" y2="2024" stroke="#5C9A2E" stroke-width="2" stroke-dasharray="4 3"/><path d="M890.0,2024 L895.0,2032 L900.0,2024 Z" fill="#5C9A2E"/><path d="M1465.0,2092 L1465.0,2127.0 L1465.0,2127.0 L1465.0,2154" fill="none" stroke="#D9822B" stroke-width="2" stroke-dasharray="5 4"/><path d="M1460.0,2154 L1465.0,2162 L1470.0,2154 Z" fill="#D9822B"/><rect x="1390" y="2162" width="150" height="60" rx="7" fill="#A977D6" stroke="#00000026"/><text x="1465" y="2195" font-size="10.5" fill="#2E1049" text-anchor="middle">Baixar estoque</text><rect x="1580" y="2162" width="150" height="60" rx="7" fill="#F6A93B" stroke="#00000026"/><text x="1655" y="2195" font-size="10.5" fill="#5A3A00" text-anchor="middle">Estoque baixado</text><line x1="1540" y1="2192.0" x2="1572" y2="2192.0" stroke="#D9822B" stroke-width="2"/><path d="M1572,2187.0 L1580,2192.0 L1572,2197.0 Z" fill="#D9822B"/><path d="M1655.0,2162 L1655.0,2127.0 L1655.0,2127.0 L1655.0,2100" fill="none" stroke="#D9822B" stroke-width="2" stroke-dasharray="5 4"/><path d="M1650.0,2100 L1655.0,2092 L1660.0,2100 Z" fill="#D9822B"/><text x="1390" y="2154" font-size="10" fill="#D9822B" font-style="italic">ao usar peca: baixa de estoque</text><rect x="820" y="2286" width="150" height="60" rx="7" fill="#F6A93B" stroke="#00000026"/><text x="895" y="2312" font-size="10.5" fill="#5A3A00" text-anchor="middle">(repete executar /</text><text x="895" y="2325" font-size="10.5" fill="#5A3A00" text-anchor="middle">usar peca)</text><text x="820" y="2278" font-size="10" fill="#5A7184" font-style="italic">loop: enquanto houver servicos pendentes (volta a Executar servico)</text><line x1="1970" y1="1854" x2="1970" y2="2370" stroke="#243B53" stroke-width="3"/><circle cx="1970" cy="2062.0" r="7" fill="#243B53"/><text x="1984" y="2056.0" font-size="11.5" fill="#243B53" font-weight="bold">PIVOTAL</text><text x="1984" y="2072.0" font-size="11" fill="#243B53">OS finalizada</text><rect x="44" y="2430" width="936" height="28" rx="5" fill="#1F3A5F"/><text x="54" y="2449" font-size="14" fill="#fff" font-weight="bold">FASE 5 — Entrega</text><text x="950" y="2449" font-size="10.5" fill="#cfe0f0" text-anchor="end">BC: OS  ·  Agregados: OrdemServico</text><rect x="60" y="2602" width="150" height="60" rx="7" fill="#4C8DD6" stroke="#00000026"/><rect x="68" y="2589" width="68" height="17" rx="3" fill="#F2D750" stroke="#00000026"/><text x="102" y="2601" font-size="10" fill="#4A3B00" text-anchor="middle">Atendente</text><text x="135" y="2635" font-size="10.5" fill="#08233F" text-anchor="middle">Entregar veiculo</text><rect x="250" y="2602" width="150" height="60" rx="7" fill="#F6A93B" stroke="#00000026"/><text x="325" y="2635" font-size="10.5" fill="#5A3A00" text-anchor="middle">Veiculo entregue</text><line x1="210" y1="2632.0" x2="242" y2="2632.0" stroke="#5A7184" stroke-width="2"/><path d="M242,2627.0 L250,2632.0 L242,2637.0 Z" fill="#5A7184"/><rect x="440" y="2602" width="150" height="60" rx="7" fill="#A977D6" stroke="#00000026"/><text x="515" y="2635" font-size="10.5" fill="#2E1049" text-anchor="middle">Status = Entregue</text><line x1="400" y1="2632.0" x2="432" y2="2632.0" stroke="#5A7184" stroke-width="2"/><path d="M432,2627.0 L440,2632.0 L432,2637.0 Z" fill="#5A7184"/><rect x="630" y="2602" width="150" height="60" rx="7" fill="#F6A93B" stroke="#00000026"/><text x="705" y="2635" font-size="10.5" fill="#5A3A00" text-anchor="middle">OS entregue</text><line x1="590" y1="2632.0" x2="622" y2="2632.0" stroke="#5A7184" stroke-width="2"/><path d="M622,2627.0 L630,2632.0 L622,2637.0 Z" fill="#5A7184"/><path d="M135.0,2662 L135.0,2697.0 L135.0,2697.0 L135.0,2724" fill="none" stroke="#8A9BA8" stroke-width="2" stroke-dasharray="2 4"/><path d="M130.0,2724 L135.0,2732 L140.0,2724 Z" fill="#8A9BA8"/><rect x="60" y="2732" width="150" height="60" rx="7" fill="#A977D6" stroke="#00000026"/><text x="135" y="2758" font-size="10.5" fill="#2E1049" text-anchor="middle">Notificar</text><text x="135" y="2771" font-size="10.5" fill="#2E1049" text-anchor="middle">finalizacao</text><rect x="250" y="2732" width="150" height="60" rx="7" fill="#EC6FA6" stroke="#00000026"/><text x="325" y="2758" font-size="10.5" fill="#4A0A28" text-anchor="middle">Sistema de</text><text x="325" y="2771" font-size="10.5" fill="#4A0A28" text-anchor="middle">Notificacao</text><line x1="210" y1="2762.0" x2="242" y2="2762.0" stroke="#8A9BA8" stroke-width="2" stroke-dasharray="2 4"/><path d="M242,2757.0 L250,2762.0 L242,2767.0 Z" fill="#8A9BA8"/><rect x="440" y="2732" width="150" height="60" rx="7" fill="#F6A93B" stroke="#00000026"/><text x="515" y="2765" font-size="10.5" fill="#5A3A00" text-anchor="middle">Cliente notificado</text><line x1="400" y1="2762.0" x2="432" y2="2762.0" stroke="#8A9BA8" stroke-width="2" stroke-dasharray="2 4"/><path d="M432,2757.0 L440,2762.0 L432,2767.0 Z" fill="#8A9BA8"/><text x="60" y="2724" font-size="10" fill="#5A7184" font-style="italic">Opcional - notificar finalizacao</text><line x1="830" y1="2424" x2="830" y2="2816" stroke="#243B53" stroke-width="3"/><circle cx="830" cy="2632.0" r="7" fill="#243B53"/><text x="844" y="2626.0" font-size="11.5" fill="#243B53" font-weight="bold">PIVOTAL</text><text x="844" y="2642.0" font-size="11" fill="#243B53">OS entregue (fim)</text><rect x="44" y="2846" width="2270" height="46" rx="6" fill="#FBEFEF" stroke="#E2574C55"/><text x="56" y="2865" font-size="10.5" fill="#9A2B22">Pontos de atencao: (2) OS cancelada: soft-delete (status Cancelada), nunca apagar fisicamente.  (3) Notificacao ativa e opcional no MVP (obrigatorio = consulta via API).</text><text x="56" y="2882" font-size="10.5" fill="#9A2B22">(4) Peca sem estoque: bloquear a baixa (compra a fornecedor fora do MVP).</text></svg>